<?xml version="1.0" encoding="UTF-8" standalone="no"?>
<svg
   width="22.913084"
   height="18.192133"
   viewBox="-4.2 -0.3 22.913084 18.192133"
   preserveAspectRatio="xMinYMid"
   overflow="visible"
   version="1.1"
   id="svg4508"
   sodipodi:docname="monologo.svg"
   inkscape:version="1.2.2 (b0a8486541, 2022-12-01, custom)"
   xmlns:inkscape="http://www.inkscape.org/namespaces/inkscape"
   xmlns:sodipodi="http://sodipodi.sourceforge.net/DTD/sodipodi-0.dtd"
   xmlns="http://www.w3.org/2000/svg"
   xmlns:svg="http://www.w3.org/2000/svg">
  <defs
     id="defs137" />
  <sodipodi:namedview
     id="namedview135"
     pagecolor="#ffffff"
     bordercolor="#666666"
     borderopacity="1.0"
     inkscape:showpageshadow="2"
     inkscape:pageopacity="0.0"
     inkscape:pagecheckerboard="0"
     inkscape:deskcolor="#d1d1d1"
     showgrid="false"
     inkscape:zoom="39.192765"
     inkscape:cx="11.456196"
     inkscape:cy="9.0960665"
     inkscape:window-width="1920"
     inkscape:window-height="935"
     inkscape:window-x="0"
     inkscape:window-y="0"
     inkscape:window-maximized="1"
     inkscape:current-layer="svg4508" />
  <path
     style="fill:#000000;fill-opacity:1;stroke:none;stroke-width:1px;stroke-linecap:butt;stroke-linejoin:miter;stroke-opacity:1"
     d="M -3.3985361,-0.2780421 -4.2,17.892132 18.713083,17.881153 17.80183,-0.3 Z M 17.077219,0.2489478 18.021409,17.112625 -3.4534309,17.068715 -2.7617566,0.2489529 Z"
     id="path4556" />
  <path
     id="path4539"
     style="fill:#000000;fill-opacity:1;stroke:none;stroke-width:1px;stroke-linecap:butt;stroke-linejoin:miter;stroke-opacity:1"
     d="M -2.7605469 0.24882813 L -2.91875 4.1023438 L 1.8839844 4.090625 L 1.9542969 0.24882813 L -2.7605469 0.24882813 z M 1.8839844 4.090625 L 1.8058594 8.2527344 L 7.2785156 8.246875 L 7.2960937 4.1082031 L 1.8839844 4.090625 z M 7.2960937 4.1082031 L 12.801953 4.1082031 L 12.696484 0.24882813 L 7.315625 0.24882813 L 7.2960937 4.1082031 z M 12.801953 4.1082031 L 12.923047 8.2410156 L 17.526563 8.2527344 L 17.294141 4.1023438 L 12.801953 4.1082031 z M 12.923047 8.2410156 L 7.2785156 8.246875 L 7.2511719 12.676562 L 13.053906 12.692187 L 12.923047 8.2410156 z M 13.053906 12.692187 L 13.184766 17.102344 L 18.022656 17.112109 L 17.774609 12.692187 L 13.053906 12.692187 z M 7.2511719 12.676562 L 1.7355469 12.664844 L 1.6710937 17.078906 L 7.2414062 17.090625 L 7.2511719 12.676562 z M 1.7355469 12.664844 L 1.8058594 8.2527344 L -3.0886719 8.246875 L -3.2703125 12.664844 L 1.7355469 12.664844 z M -0.47148438 1.0457031 A 0.98132747 0.9209289 0 0 1 0.50898437 1.9675781 A 0.98132747 0.9209289 0 0 1 -0.47148438 2.8875 A 0.98132747 0.9209289 0 0 1 -1.4519531 1.9675781 A 0.98132747 0.9209289 0 0 1 -0.47148438 1.0457031 z M 10.020703 1.10625 A 0.98132747 0.9209289 0 0 1 11.003125 2.0261719 A 0.98132747 0.9209289 0 0 1 10.020703 2.9480469 A 0.98132747 0.9209289 0 0 1 9.0402344 2.0261719 A 0.98132747 0.9209289 0 0 1 10.020703 1.10625 z M 4.675 5.0789063 A 0.98132747 0.9209289 0 0 1 5.6574219 5.9988281 A 0.98132747 0.9209289 0 0 1 4.675 6.9207031 A 0.98132747 0.9209289 0 0 1 3.6945312 5.9988281 A 0.98132747 0.9209289 0 0 1 4.675 5.0789063 z M 15.382031 5.0828125 A 0.98132747 0.9209289 0 0 1 16.3625 6.0027344 A 0.98132747 0.9209289 0 0 1 15.382031 6.9246094 A 0.98132747 0.9209289 0 0 1 14.399609 6.0027344 A 0.98132747 0.9209289 0 0 1 15.382031 5.0828125 z M -0.76054688 9.4167969 A 0.98132747 0.9209289 0 0 1 0.21992187 10.336719 A 0.98132747 0.9209289 0 0 1 -0.76054688 11.258594 A 0.98132747 0.9209289 0 0 1 -1.7429688 10.336719 A 0.98132747 0.9209289 0 0 1 -0.76054688 9.4167969 z M 10.130078 9.4988281 A 0.98132747 0.9209289 0 0 1 11.1125 10.41875 A 0.98132747 0.9209289 0 0 1 10.130078 11.340625 A 0.98132747 0.9209289 0 0 1 9.1496094 10.41875 A 0.98132747 0.9209289 0 0 1 10.130078 9.4988281 z M 4.4542969 14.078906 A 0.98132747 0.9209289 0 0 1 5.4347656 15.000781 A 0.98132747 0.9209289 0 0 1 4.4542969 15.920703 A 0.98132747 0.9209289 0 0 1 3.471875 15.000781 A 0.98132747 0.9209289 0 0 1 4.4542969 14.078906 z M 15.717969 14.153125 A 0.98132747 0.9209289 0 0 1 16.700391 15.075 A 0.98132747 0.9209289 0 0 1 15.717969 15.994922 A 0.98132747 0.9209289 0 0 1 14.7375 15.075 A 0.98132747 0.9209289 0 0 1 15.717969 14.153125 z " />
</svg>
